<?xml version="1.0" encoding="utf-8"?>
<!-- Generator: Adobe Illustrator 16.0.0, SVG Export Plug-In . SVG Version: 6.00 Build 0)  -->
<!DOCTYPE svg PUBLIC "-//W3C//DTD SVG 1.1//EN" "http://www.w3.org/Graphics/SVG/1.1/DTD/svg11.dtd">
<svg version="1.1" id="Layer_1" xmlns="http://www.w3.org/2000/svg" xmlns:xlink="http://www.w3.org/1999/xlink" x="0px" y="0px"
	 width="22px" height="22px" viewBox="0 0 22 22" enable-background="new 0 0 22 22" xml:space="preserve">
<path fill="#00FF00" d="M1.753,13.246c0.195,0.195,0.195,0.512,0,0.707C1.656,14.051,1.528,14.1,1.4,14.1s-0.256-0.049-0.354-0.146
	L0,12.907V22h0.508l0.136-0.305c0.112-0.25,0.407-0.367,0.661-0.252C1.522,21.541,1.626,21.775,1.58,22h2.264l-1.002-2.3
	c-0.11-0.255,0.005-0.548,0.259-0.658c0.254-0.108,0.548,0.006,0.658,0.258L4.936,22h2.283c0.03-0.145,0.116-0.275,0.258-0.348
	l3.8-1.899c0.249-0.124,0.548-0.022,0.671,0.224c0.122,0.248,0.022,0.549-0.224,0.672L9.018,22h6.895
	c0.002-0.006,0-0.011,0.001-0.018l1-4.198c0.062-0.269,0.329-0.438,0.604-0.37c0.269,0.062,0.435,0.334,0.369,0.604L16.938,22h3.11
	l-0.325-0.371c-0.183-0.208-0.16-0.523,0.047-0.705c0.207-0.181,0.523-0.16,0.705,0.047l0.9,1.029H22v-4.861l-0.952,0.922
	c-0.097,0.092-0.223,0.14-0.348,0.14c-0.132,0-0.261-0.052-0.359-0.152c-0.192-0.198-0.187-0.515,0.013-0.707L22,15.746v-5.225
	l-2.062-2.178c-0.189-0.2-0.182-0.517,0.02-0.707c0.2-0.19,0.516-0.182,0.707,0.019L22,9.067v-2.95l-2.312-0.53
	c-0.27-0.062-0.438-0.33-0.375-0.599c0.062-0.268,0.326-0.44,0.599-0.375L22,5.092V0h-8.752l-0.473,1.454
	C12.707,1.666,12.512,1.8,12.3,1.8c-0.051,0-0.104-0.008-0.153-0.024c-0.264-0.085-0.406-0.368-0.321-0.63L12.195,0H2.838
	l0.526,1.314c0.103,0.256-0.022,0.547-0.279,0.65C3.025,1.989,2.962,2,2.9,2C2.702,2,2.514,1.881,2.436,1.686L1.761,0H0v11.493
	L1.753,13.246z M4.923,15.182l-3.3,2.799C1.529,18.061,1.415,18.1,1.3,18.1c-0.142,0-0.283-0.06-0.382-0.177
	c-0.179-0.21-0.153-0.526,0.058-0.704l3.3-2.8c0.211-0.181,0.525-0.153,0.705,0.058C5.16,14.688,5.134,15.002,4.923,15.182z
	 M8.63,14.956l-2.2,3.7C6.336,18.812,6.17,18.9,6,18.9c-0.087,0-0.175-0.022-0.255-0.07c-0.237-0.141-0.315-0.448-0.174-0.686
	l2.2-3.701c0.141-0.236,0.448-0.315,0.685-0.174C8.693,14.411,8.771,14.719,8.63,14.956z M20.081,12.352
	c0.245-0.119,0.547-0.02,0.668,0.229c0.121,0.248,0.019,0.547-0.229,0.668l-3.899,1.899c-0.07,0.035-0.146,0.052-0.22,0.052
	c-0.185,0-0.362-0.104-0.448-0.281c-0.121-0.248-0.019-0.547,0.229-0.668L20.081,12.352z M16.193,0.308
	c0.162-0.225,0.476-0.274,0.699-0.113l3.601,2.6c0.224,0.162,0.274,0.474,0.112,0.698C20.508,3.628,20.354,3.7,20.2,3.7
	c-0.103,0-0.204-0.031-0.293-0.095l-3.601-2.6C16.083,0.844,16.032,0.531,16.193,0.308z M15.648,6.023
	c0.268-0.083,0.545,0.062,0.627,0.326l1.301,4.1c0.084,0.263-0.062,0.544-0.325,0.627C17.2,11.093,17.148,11.1,17.1,11.1
	c-0.211,0-0.408-0.136-0.477-0.349l-1.3-4.1C15.238,6.388,15.387,6.107,15.648,6.023z M14.688,18.217
	c-0.1,0.121-0.244,0.184-0.388,0.184c-0.11,0-0.224-0.037-0.315-0.113l-3.3-2.7c-0.214-0.175-0.246-0.489-0.07-0.703
	c0.175-0.214,0.49-0.245,0.703-0.069l3.3,2.699C14.83,17.688,14.861,18.003,14.688,18.217z M11.424,8.549l1.301-4.1
	c0.082-0.264,0.361-0.411,0.627-0.326c0.264,0.083,0.41,0.364,0.325,0.627l-1.3,4.1C12.311,9.064,12.111,9.2,11.9,9.2
	c-0.051,0-0.102-0.007-0.151-0.023C11.486,9.093,11.34,8.812,11.424,8.549z M9.762,10.927l4.099,1.399
	c0.263,0.09,0.402,0.374,0.312,0.635c-0.07,0.208-0.266,0.339-0.474,0.339c-0.054,0-0.108-0.009-0.161-0.026l-4.101-1.399
	c-0.261-0.089-0.401-0.374-0.312-0.635C9.215,10.978,9.499,10.836,9.762,10.927z M7.702,1.21C7.975,1.153,8.236,1.331,8.29,1.602
	l0.9,4.5C9.245,6.373,9.069,6.636,8.798,6.69C8.765,6.697,8.732,6.7,8.7,6.7c-0.233,0-0.442-0.164-0.49-0.402l-0.9-4.5
	C7.255,1.527,7.431,1.264,7.702,1.21z M7.08,9.06c0.078,0.265-0.075,0.543-0.339,0.62l-4.1,1.2C2.594,10.894,2.546,10.9,2.5,10.9
	c-0.217,0-0.416-0.142-0.48-0.359C1.942,10.275,2.095,9.998,2.359,9.92l4.1-1.2C6.726,8.643,7.002,8.795,7.08,9.06z M0.843,4.396
	C0.956,4.145,1.25,4.029,1.504,4.144l4.7,2.1c0.252,0.113,0.365,0.408,0.252,0.661C6.374,7.09,6.191,7.2,6,7.2
	c-0.068,0-0.137-0.014-0.204-0.043l-4.7-2.1C0.844,4.944,0.73,4.648,0.843,4.396z"/>
</svg>
