<?xml version="1.0" encoding="utf-8"?>
<!-- Generator: Adobe Illustrator 16.0.0, SVG Export Plug-In . SVG Version: 6.00 Build 0)  -->
<!DOCTYPE svg PUBLIC "-//W3C//DTD SVG 1.1//EN" "http://www.w3.org/Graphics/SVG/1.1/DTD/svg11.dtd">
<svg version="1.1" id="Layer_1" xmlns="http://www.w3.org/2000/svg" xmlns:xlink="http://www.w3.org/1999/xlink" x="0px" y="0px"
	 width="22px" height="22px" viewBox="0 0 22 22" enable-background="new 0 0 22 22" xml:space="preserve">
<g>
	<path fill="#00FF00" d="M20.785,2.39c0.447,0.323,0.549,0.948,0.227,1.396c-0.18,0.248-0.455,0.375-0.738,0.397L22,4.579V0h-4.523
		L20.785,2.39z"/>
	<path fill="#00FF00" d="M2.107,12.893c0.391,0.392,0.391,1.023,0,1.414C1.912,14.502,1.656,14.6,1.4,14.6
		c-0.256,0-0.512-0.098-0.707-0.293L0,13.614v8.297l0.188-0.419c0.225-0.506,0.818-0.729,1.321-0.506
		C1.912,21.168,2.125,21.583,2.082,22h1.217l-0.916-2.102c-0.221-0.506,0.011-1.096,0.517-1.315
		c0.506-0.222,1.096,0.013,1.316,0.519L5.48,22h1.243c0.034-0.328,0.212-0.636,0.53-0.795l3.8-1.898
		c0.494-0.246,1.095-0.048,1.341,0.446c0.248,0.494,0.047,1.095-0.446,1.343L10.136,22h5.287c0.005-0.045-0.006-0.087,0.005-0.132
		l1-4.199c0.129-0.538,0.668-0.867,1.204-0.741c0.537,0.129,0.869,0.668,0.741,1.204L17.452,22h1.932l-0.036-0.042
		c-0.363-0.415-0.322-1.047,0.094-1.411c0.414-0.363,1.047-0.322,1.412,0.096L22,21.953v-4.119l-0.604,0.585
		C21.201,18.605,20.951,18.7,20.7,18.7c-0.263,0-0.522-0.103-0.72-0.306c-0.383-0.396-0.373-1.028,0.023-1.414L22,15.051v-3.803
		l-2.426-2.56c-0.381-0.401-0.363-1.034,0.037-1.414c0.402-0.379,1.035-0.362,1.414,0.038L22,8.341V6.63l-2.424-0.556
		c-0.538-0.123-0.874-0.66-0.751-1.198c0.108-0.473,0.538-0.772,1.005-0.757c-0.073-0.03-0.146-0.06-0.215-0.109l-3.602-2.6
		c-0.447-0.323-0.549-0.948-0.226-1.396C15.793,0.009,15.801,0.006,15.805,0h-2.031l-0.521,1.609C13.113,2.031,12.723,2.3,12.3,2.3
		c-0.103,0-0.206-0.016-0.309-0.049c-0.526-0.171-0.813-0.735-0.643-1.26L11.671,0H3.377l0.452,1.128
		c0.205,0.513-0.044,1.095-0.557,1.3C3.149,2.477,3.024,2.5,2.9,2.5c-0.397,0-0.772-0.238-0.929-0.629L1.223,0H0v10.786
		L2.107,12.893z M1.54,10.681c-0.155-0.53,0.149-1.085,0.679-1.241l4.1-1.2C6.85,8.086,7.405,8.39,7.56,8.919
		c0.155,0.53-0.149,1.085-0.679,1.241l-4.1,1.2C2.687,11.387,2.592,11.4,2.5,11.4C2.067,11.4,1.668,11.117,1.54,10.681z
		 M1.947,18.361C1.759,18.521,1.529,18.6,1.3,18.6c-0.284,0-0.565-0.119-0.763-0.354c-0.357-0.421-0.305-1.053,0.116-1.409l3.3-2.8
		c0.421-0.355,1.053-0.305,1.41,0.115c0.357,0.422,0.305,1.053-0.116,1.41L1.947,18.361z M9.06,15.211l-2.2,3.7
		C6.672,19.227,6.34,19.4,5.999,19.4c-0.174,0-0.35-0.045-0.51-0.142c-0.475-0.282-0.63-0.896-0.348-1.37l2.2-3.699
		c0.282-0.476,0.896-0.633,1.371-0.35C9.186,14.123,9.342,14.736,9.06,15.211z M15.073,18.533c-0.197,0.242-0.484,0.367-0.774,0.367
		c-0.223,0-0.445-0.074-0.632-0.228l-3.3-2.7c-0.427-0.35-0.49-0.979-0.141-1.406c0.35-0.428,0.979-0.489,1.407-0.141l3.301,2.7
		C15.359,17.477,15.424,18.105,15.073,18.533z M19.861,11.9c0.5-0.242,1.096-0.035,1.337,0.461s0.036,1.096-0.46,1.337l-3.899,1.899
		C16.697,15.667,16.548,15.7,16.4,15.7c-0.371,0-0.727-0.206-0.899-0.562c-0.241-0.498-0.035-1.097,0.461-1.338L19.861,11.9z
		 M15.498,5.547c0.523-0.169,1.089,0.125,1.255,0.651l1.3,4.1c0.168,0.526-0.123,1.088-0.65,1.257
		c-0.101,0.03-0.202,0.047-0.303,0.047c-0.425,0-0.817-0.272-0.953-0.699l-1.299-4.1C14.68,6.276,14.971,5.714,15.498,5.547z
		 M10.947,8.398l1.3-4.1c0.167-0.525,0.728-0.82,1.255-0.651c0.527,0.167,0.818,0.729,0.65,1.255l-1.299,4.1
		C12.718,9.428,12.325,9.7,11.9,9.7c-0.101,0-0.201-0.015-0.303-0.047C11.072,9.486,10.78,8.924,10.947,8.398z M14.023,11.854
		c0.521,0.18,0.802,0.748,0.623,1.271c-0.143,0.415-0.53,0.677-0.946,0.677c-0.107,0-0.216-0.017-0.323-0.054l-4.1-1.399
		c-0.522-0.179-0.802-0.746-0.623-1.27c0.178-0.522,0.744-0.802,1.27-0.623L14.023,11.854z M7.604,0.72
		C8.146,0.613,8.672,0.962,8.78,1.504l0.9,4.5c0.108,0.542-0.243,1.068-0.784,1.177C8.83,7.194,8.764,7.2,8.699,7.2
		c-0.467,0-0.884-0.329-0.979-0.804l-0.9-4.5C6.711,1.355,7.062,0.828,7.604,0.72z M0.387,4.192C0.612,3.687,1.202,3.46,1.708,3.687
		l4.7,2.1c0.504,0.226,0.73,0.817,0.505,1.321C6.747,7.48,6.382,7.701,6,7.701c-0.136,0-0.275-0.028-0.407-0.087l-4.7-2.1
		C0.388,5.288,0.162,4.696,0.387,4.192z"/>
</g>
</svg>
