<?xml version="1.0" encoding="utf-8"?>
<!-- Generator: Adobe Illustrator 16.0.0, SVG Export Plug-In . SVG Version: 6.00 Build 0)  -->
<!DOCTYPE svg PUBLIC "-//W3C//DTD SVG 1.1//EN" "http://www.w3.org/Graphics/SVG/1.1/DTD/svg11.dtd">
<svg version="1.1" id="Layer_1" xmlns="http://www.w3.org/2000/svg" xmlns:xlink="http://www.w3.org/1999/xlink" x="0px" y="0px"
	 width="22px" height="22px" viewBox="0 0 22 22" enable-background="new 0 0 22 22" xml:space="preserve">
<g>
	<path fill="#00FF00" d="M20.7,19.2c-0.392,0-0.783-0.152-1.078-0.457c-0.576-0.595-0.562-1.545,0.035-2.121L22,14.354v-2.379
		l-2.789-2.943C18.643,8.429,18.667,7.48,19.27,6.91c0.137-0.13,0.295-0.22,0.461-0.289L19.465,6.56
		c-0.808-0.185-1.312-0.99-1.127-1.797c0.068-0.298,0.223-0.554,0.43-0.75l-3.045-2.199C15.139,1.395,14.949,0.633,15.227,0H14.3
		l-0.573,1.763C13.521,2.397,12.934,2.8,12.3,2.8c-0.153,0-0.31-0.024-0.464-0.074c-0.788-0.256-1.219-1.103-0.963-1.89L11.145,0
		h-7.23l0.377,0.943C4.6,1.712,4.226,2.585,3.457,2.893C3.274,2.966,3.086,3,2.9,3C2.305,3,1.742,2.644,1.507,2.057L0.685,0H0v3.866
		C0.375,3.199,1.198,2.911,1.912,3.23l4.7,2.1c0.173,0.077,0.321,0.186,0.447,0.312l-0.73-3.648
		C6.167,1.182,6.693,0.392,7.505,0.229C8.319,0.068,9.108,0.593,9.27,1.405l0.9,4.5c0.163,0.812-0.364,1.603-1.176,1.765
		C8.894,7.69,8.796,7.7,8.698,7.7c-0.503,0-0.961-0.261-1.236-0.669C7.441,7.126,7.411,7.22,7.37,7.312
		C7.29,7.491,7.171,7.637,7.038,7.766C7.504,7.909,7.892,8.275,8.04,8.779c0.233,0.795-0.223,1.628-1.018,1.861l-4.1,1.2
		C2.781,11.881,2.639,11.9,2.5,11.9c-0.649,0-1.248-0.425-1.439-1.08C0.828,10.026,1.284,9.193,2.079,8.96l3.205-0.938L0.688,5.97
		C0.385,5.834,0.152,5.608,0,5.34v4.739l2.46,2.46c0.578,0.578,0.58,1.507,0.018,2.094l1.151-0.977
		c0.631-0.535,1.578-0.459,2.114,0.173c0.536,0.632,0.458,1.579-0.174,2.114l-2.444,2.072c0.542-0.062,1.082,0.168,1.399,0.617
		c-0.053-0.334-0.001-0.688,0.186-1l2.2-3.699c0.423-0.713,1.344-0.949,2.056-0.522c0.406,0.241,0.65,0.646,0.712,1.081
		c0.045-0.084,0.098-0.166,0.161-0.242c0.524-0.643,1.468-0.734,2.111-0.211l3.3,2.7c0.641,0.524,0.734,1.47,0.211,2.11
		c-0.297,0.362-0.729,0.551-1.162,0.551c-0.334,0-0.67-0.111-0.949-0.34l-3.299-2.699c-0.305-0.25-0.482-0.596-0.532-0.957
		c-0.011,0.021-0.017,0.041-0.029,0.062l-2.2,3.7C7.009,19.639,6.51,19.9,5.999,19.9c-0.261,0-0.525-0.067-0.765-0.211
		c-0.132-0.078-0.241-0.179-0.339-0.287L6.026,22h0.188c0.033-0.514,0.322-0.996,0.815-1.242l3.8-1.898
		c0.739-0.369,1.644-0.069,2.013,0.67c0.37,0.742,0.07,1.644-0.671,2.014L11.255,22h3.653c0.006-0.082,0.014-0.165,0.033-0.248
		l1-4.199c0.19-0.806,0.998-1.307,1.807-1.111c0.807,0.191,1.304,1.002,1.111,1.808L17.966,22h0.812
		c-0.318-0.602-0.198-1.361,0.334-1.829c0.625-0.546,1.572-0.481,2.117,0.142L22,21.193v-2.664l-0.257,0.248
		C21.452,19.061,21.076,19.2,20.7,19.2z M15.348,5.07c0.789-0.253,1.633,0.187,1.883,0.977l1.299,4.1
		c0.252,0.79-0.187,1.632-0.977,1.882c-0.15,0.049-0.304,0.07-0.453,0.07c-0.637,0-1.228-0.408-1.43-1.046l-1.3-4.1
		C14.119,6.164,14.557,5.32,15.348,5.07z M10.471,8.247l1.3-4.1c0.25-0.789,1.09-1.229,1.883-0.977
		c0.789,0.25,1.228,1.093,0.977,1.883l-1.3,4.1C13.129,9.792,12.538,10.2,11.9,10.2c-0.148,0-0.303-0.023-0.452-0.071
		C10.657,9.88,10.22,9.037,10.471,8.247z M13.7,14.3c-0.161,0-0.324-0.024-0.484-0.079l-4.101-1.4
		c-0.784-0.269-1.202-1.12-0.935-1.904c0.268-0.784,1.12-1.204,1.904-0.935l4.1,1.4c0.784,0.268,1.203,1.121,0.937,1.904
		C14.907,13.908,14.324,14.3,13.7,14.3z M17.059,16.049c-0.213,0.104-0.437,0.151-0.656,0.151c-0.557,0-1.09-0.31-1.351-0.843
		c-0.362-0.746-0.053-1.644,0.691-2.006l3.899-1.9c0.746-0.362,1.644-0.054,2.006,0.691c0.361,0.744,0.053,1.643-0.691,2.006
		L17.059,16.049z"/>
	<path fill="#00FF00" d="M1.713,20.531c0.271,0.121,0.487,0.314,0.639,0.547L1.925,20.1c-0.165-0.377-0.161-0.787-0.022-1.143
		C1.708,19.043,1.507,19.1,1.301,19.1c-0.426,0-0.848-0.18-1.145-0.529C0.095,18.499,0.045,18.422,0,18.344v2.547
		C0.425,20.43,1.108,20.262,1.713,20.531z"/>
	<path fill="#00FF00" d="M1.4,15.1c-0.384,0-0.768-0.146-1.061-0.438L0,14.32v2.541c0.084-0.149,0.191-0.288,0.33-0.405l2.066-1.753
		C2.112,14.959,1.759,15.1,1.4,15.1z"/>
	<polygon fill="#00FF00" points="22,7.613 22,7.143 21.432,7.013 	"/>
	<path fill="#00FF00" d="M2.544,21.521C2.585,21.676,2.601,21.838,2.591,22h0.162L2.544,21.521z"/>
	<path fill="#00FF00" d="M21.078,1.984c0.631,0.456,0.795,1.307,0.413,1.965L22,4.066V0h-3.669L21.078,1.984z"/>
</g>
</svg>
